<svg width="375" height="80" viewBox="0 0 375 80" fill="none" xmlns="http://www.w3.org/2000/svg">
<g clip-path="url(#clip0_13_413)">
<path fill-rule="evenodd" clip-rule="evenodd" d="M152.972 11.7827C150.804 5.52004 145.627 0 139 0H12C5.37258 0 0 5.37258 0 12V68C0 74.6274 5.37259 80 12 80H363C369.627 80 375 74.6274 375 68V12C375 5.37258 369.627 0 363 0H235C228.373 0 223.196 5.52004 221.028 11.7827C216.147 25.8784 202.756 36 187 36C171.244 36 157.853 25.8784 152.972 11.7827Z" fill="#1A1F24"/>
<path d="M375 56H0V80H375V56Z" fill="#1A1F24"/>
</g>
<defs>
<clipPath id="clip0_13_413">
<rect width="375" height="80" fill="white"/>
</clipPath>
</defs>
</svg>
